<?xml version="1.0" encoding="utf-8"?>
<!-- Generator: Adobe Illustrator 25.4.1, SVG Export Plug-In . SVG Version: 6.00 Build 0)  -->
<svg version="1.1" id="Vrstva_1" xmlns="http://www.w3.org/2000/svg" xmlns:xlink="http://www.w3.org/1999/xlink" x="0px" y="0px"
	 viewBox="0 0 264.6 80" style="enable-background:new 0 0 264.6 80;" xml:space="preserve">
<style type="text/css">
	.st0{fill:#59BAB7;}
	.st1{fill:#009DD9;}
	.st2{fill:#1D1D1B;}
	.st3{fill:#7099D0;}
	.st4{fill:#43AB37;}
	.st5{fill:#955FA2;}
	.st6{fill:#007E57;}
	.st7{fill:#D00074;}
	.st8{fill:#DF057A;}
	.st9{fill:#E98201;}
</style>
<g>
	<g id="Group_581_2_" transform="translate(7623 2278)">
		<path id="Path_307_2_" d="M-7361.08-2247.5c-0.87,0.01-1.7,0.33-2.35,0.9v-4.08h-1.44v10.77h1.44v-5.78
			c0.53-0.38,1.16-0.59,1.81-0.61c0.89-0.09,1.69,0.55,1.79,1.45c0.01,0.11,0.01,0.22,0,0.33v4.61h1.43v-4.91
			c0.14-1.34-0.83-2.53-2.17-2.67C-7360.75-2247.52-7360.92-2247.52-7361.08-2247.5 M-7369-2247.5c-2.15,0.09-3.82,1.91-3.73,4.06
			c0.08,1.92,1.56,3.5,3.47,3.71c0.88,0.01,1.74-0.23,2.49-0.68l-0.24-0.86c-0.54,0.29-1.14,0.45-1.76,0.47
			c-1.4-0.03-2.51-1.18-2.48-2.58c0-0.09,0.01-0.18,0.02-0.27c-0.17-1.35,0.79-2.57,2.14-2.74c0.11-0.01,0.21-0.02,0.32-0.02
			c0.6,0,1.19,0.16,1.7,0.47l0.33-0.97C-7367.43-2247.31-7368.21-2247.51-7369-2247.5 M-7376.58-2239.92h1.44v-7.4h-1.44V-2239.92z
			 M-7375.39-2250.69l-1.29,2.43l0.99,0.03l1.7-2.46H-7375.39z M-7380.71-2247.5c-2.15,0.09-3.82,1.91-3.72,4.06
			c0.08,1.92,1.56,3.49,3.47,3.7c0.88,0,1.74-0.23,2.49-0.68l-0.24-0.86c-0.54,0.29-1.14,0.45-1.76,0.47
			c-1.4-0.03-2.5-1.18-2.48-2.58c0-0.09,0.01-0.18,0.02-0.27c-0.17-1.35,0.79-2.57,2.13-2.74c0.11-0.01,0.22-0.02,0.32-0.02
			c0.6,0,1.19,0.16,1.7,0.47l0.34-0.97C-7379.13-2247.31-7379.91-2247.51-7380.71-2247.5 M-7388.29-2248.87h1.5v-1.28h-1.5V-2248.87
			z M-7388.26-2239.92h1.44v-7.4h-1.44V-2239.92z M-7396.86-2247.32l2.53,7.4h1.81l2.59-7.4h-1.42l-1.99,6.05l-1.94-6.05H-7396.86z
			 M-7401.87-2247.51c-1.97-0.08-3.64,1.46-3.71,3.43c-0.01,0.2,0,0.41,0.03,0.61c-0.16,1.89,1.24,3.56,3.13,3.72
			c0.12,0.01,0.24,0.01,0.36,0.01c2,0.09,3.68-1.46,3.77-3.46c0.01-0.19,0-0.38-0.02-0.58c0.14-1.92-1.31-3.59-3.23-3.73
			C-7401.65-2247.51-7401.76-2247.51-7401.87-2247.51 M-7401.92-2246.46c1.32,0,2.17,0.89,2.17,2.78c0,1.79-0.77,2.85-2.17,2.85
			c-1.29,0-2.19-0.86-2.19-2.85C-7404.1-2245.4-7403.33-2246.46-7401.92-2246.46 M-7409.44-2248.87h1.52v-1.28h-1.52V-2248.87z
			 M-7409.39-2247.32v7.62c0.03,0.53-0.11,1.05-0.41,1.49l-0.88,1.21l0.79,0.56l1.05-1.23c0.56-0.58,0.87-1.36,0.88-2.17v-7.48
			L-7409.39-2247.32z M-7416.92-2250.68l1.55,2.43h1.28l1.55-2.43h-1l-1.18,1.79l-1.19-1.79H-7416.92z M-7414.75-2246.46
			c1.06,0.02,1.9,0.9,1.87,1.96c0,0.04,0,0.09-0.01,0.13l-3.91,0.06C-7416.63-2245.67-7415.81-2246.46-7414.75-2246.46
			 M-7414.73-2247.51c-1.98,0-3.59,1.6-3.59,3.58c0,0.1,0,0.2,0.01,0.3c-0.14,2,1.37,3.75,3.37,3.89c0.08,0.01,0.17,0.01,0.25,0.01
			c0.97,0,1.93-0.26,2.76-0.77l-0.3-0.85c-0.63,0.33-1.32,0.51-2.03,0.53c-1.39,0.03-2.54-1.07-2.57-2.46c0-0.07,0-0.14,0-0.21h5.28
			C-7411.44-2245.52-7412.37-2247.51-7414.73-2247.51 M-7424.19-2247.51c-1.99,0.08-3.54,1.76-3.47,3.75c0,0.09,0.01,0.17,0.02,0.26
			c-0.22,1.85,1.1,3.52,2.95,3.74c0.07,0.01,0.15,0.02,0.22,0.02c0.93-0.01,1.81-0.37,2.47-1.02l0.27,0.96l1.15-0.17l-0.26-1.14
			v-9.58h-1.44v3.83c-0.55-0.43-1.22-0.66-1.92-0.65 M-7423.75-2246.43c0.55,0,1.08,0.19,1.5,0.54v4.35
			c-0.45,0.39-1.01,0.62-1.61,0.65c-1.49,0-2.24-1.08-2.24-2.76C-7426.09-2245.36-7425.15-2246.43-7423.75-2246.43 M-7430.95-2239.8
			l1.15-0.17l-0.27-1.14v-6.22h-1.43v5.72c-0.52,0.41-1.15,0.64-1.8,0.67c-0.89,0.1-1.69-0.55-1.79-1.44
			c-0.01-0.11-0.01-0.22,0-0.33v-4.61h-1.44v4.93c-0.13,1.34,0.86,2.53,2.2,2.66c0.16,0.01,0.32,0.01,0.48,0
			c0.97-0.01,1.9-0.37,2.61-1.03L-7430.95-2239.8z M-7444.42-2245.8v-3.41h1.79c1.42,0,2.14,0.73,2.14,1.75
			c-0.04,0.96-0.85,1.72-1.81,1.68c-0.04,0-0.08,0-0.11-0.01H-7444.42z M-7444.42-2240.99v-3.83h2.02c1.04-0.14,2,0.6,2.14,1.64
			c0.01,0.09,0.02,0.18,0.02,0.28c0,1.25-0.91,1.93-2.32,1.93L-7444.42-2240.99z M-7445.92-2239.92h3.73c2.31,0,3.52-1.29,3.52-2.94
			c-0.01-1.24-0.89-2.3-2.11-2.53c1.03-0.28,1.75-1.22,1.75-2.29c0-1.55-1.17-2.64-3.34-2.64h-3.55V-2239.92z M-7456.03-2247.5
			c-0.87,0.01-1.7,0.33-2.35,0.9v-4.08h-1.44v10.77h1.44v-5.78c0.53-0.38,1.16-0.59,1.81-0.61c0.89-0.1,1.69,0.55,1.79,1.44
			c0.01,0.11,0.01,0.22,0,0.33v4.61h1.43v-4.91c0.14-1.34-0.83-2.53-2.17-2.67C-7455.69-2247.52-7455.86-2247.52-7456.03-2247.5
			 M-7463.95-2247.5c-2.15,0.09-3.82,1.91-3.73,4.06c0.08,1.92,1.56,3.5,3.47,3.71c0.88,0,1.74-0.23,2.49-0.68l-0.24-0.86
			c-0.54,0.29-1.14,0.45-1.76,0.47c-1.4-0.03-2.51-1.18-2.48-2.58c0-0.09,0.01-0.18,0.02-0.27c-0.17-1.35,0.79-2.57,2.14-2.74
			c0.11-0.01,0.21-0.02,0.32-0.02c0.6,0,1.19,0.16,1.7,0.47l0.33-0.97C-7462.37-2247.31-7463.15-2247.51-7463.95-2247.5
			 M-7471.93-2250.69l-1.29,2.43l0.99,0.03l1.7-2.46H-7471.93z M-7475.95-2247.32l2.58,7.4h0.35l-1.32,3.41h1.56l3.82-10.82h-1.42
			l-2.03,6.04l-1.97-6.04H-7475.95z M-7483.3-2250.69v10.77h1.44v-2.59l1-1l2.34,3.59h1.65l-2.96-4.6l2.65-2.81h-1.6l-3.09,3.31
			v-6.68L-7483.3-2250.69z M-7488.1-2247.5c-1.82,0-2.94,0.91-2.94,2.26c0,2.59,3.93,1.56,3.93,3.31c0,0.76-0.7,1.17-1.6,1.17
			c-0.74,0-1.48-0.17-2.14-0.52l-0.27,0.97c0.79,0.38,1.66,0.58,2.53,0.58c1.4,0.18,2.68-0.81,2.86-2.21
			c0.01-0.06,0.01-0.12,0.02-0.17c0-2.65-3.91-1.67-3.91-3.28c0-0.73,0.62-1.08,1.6-1.08c0.61-0.01,1.22,0.13,1.78,0.39l0.31-0.94
			C-7486.63-2247.33-7487.36-2247.49-7488.1-2247.5 M-7496.24-2246.45c1.06,0.02,1.9,0.9,1.87,1.96c0,0.04,0,0.09-0.01,0.13
			l-3.91,0.06C-7498.12-2245.66-7497.3-2246.45-7496.24-2246.45 M-7496.23-2247.5c-1.98,0-3.59,1.6-3.59,3.58c0,0.1,0,0.2,0.01,0.3
			c-0.14,2,1.37,3.75,3.37,3.89c0.08,0.01,0.17,0.01,0.25,0.01c0.97,0,1.93-0.26,2.76-0.77l-0.31-0.85
			c-0.63,0.33-1.32,0.51-2.03,0.53c-1.39,0.03-2.54-1.07-2.57-2.45c0-0.07,0-0.14,0-0.22h5.27
			C-7492.94-2245.51-7493.87-2247.5-7496.23-2247.5 M-7506.76-2252.67l1.73,1.76h1.55l1.71-1.76h-1.09l-1.39,1.18l-1.41-1.18
			H-7506.76z M-7504.21-2250.47c-3.18,0-4.97,2.24-4.97,5.42c-0.23,2.71,1.79,5.08,4.49,5.31c0.16,0.01,0.32,0.02,0.48,0.02
			c0.9,0,1.78-0.2,2.59-0.58l-0.33-1.2c-0.69,0.34-1.45,0.51-2.22,0.48c-1.93,0-3.41-1.49-3.41-4.07c0-2.38,1.12-4.11,3.38-4.11
			c0.77-0.03,1.54,0.14,2.24,0.48l0.32-1.2c-0.8-0.38-1.68-0.57-2.56-0.56 M-7521.79-2247.33l2.54,7.4h1.8l2.6-7.4h-1.43l-1.99,6.05
			l-1.94-6.05H-7521.79z"/>
		<path id="Path_308_2_" d="M-7381.88-2259.03c-0.49,0.47-1.14,0.72-1.82,0.71c-0.7,0.07-1.33-0.45-1.39-1.15
			c0-0.05-0.01-0.09-0.01-0.14c0-1.34,1.58-1.58,3.21-1.58V-2259.03z M-7383.2-2265.07c-0.96-0.01-1.91,0.2-2.78,0.62l0.32,0.96
			c0.68-0.36,1.44-0.55,2.22-0.55c1.03,0,1.56,0.53,1.56,1.3v0.71c-2.33,0-4.61,0.38-4.61,2.52c-0.01,1.21,0.96,2.2,2.17,2.21
			c0.07,0,0.15,0,0.22-0.01c0.93,0,1.82-0.35,2.49-0.99l0.26,0.93l1.17-0.17l-0.27-1.14v-4.26
			C-7380.45-2264.28-7381.65-2265.07-7383.2-2265.07 M-7391.39-2267.49l-0.48,2.61l-1.38,0.16v0.82h1.38v4.52
			c-0.05,1.1,0.81,2.04,1.92,2.08c0.09,0,0.19,0,0.28-0.01c0.72-0.02,1.42-0.22,2.03-0.59l-0.27-0.82c-0.38,0.2-0.8,0.31-1.23,0.32
			c-0.64,0.08-1.23-0.38-1.31-1.03c-0.01-0.1-0.01-0.21,0-0.31v-4.17h2.5v-0.99h-2.5v-2.6L-7391.39-2267.49z M-7396.53-2266.43h1.5
			v-1.28h-1.5V-2266.43z M-7396.5-2257.49h1.44v-7.4h-1.44V-2257.49z M-7404.49-2264.89v0.99h3.94l-4.13,5.59v0.83h6.08v-0.97h-4.27
			l4.15-5.64v-0.79L-7404.49-2264.89z M-7406.51-2265.02c-0.84,0.01-1.62,0.41-2.11,1.09l-0.23-0.96h-1.18l0.17,1.28v6.13h1.42
			v-5.61c0.5-0.51,1.18-0.81,1.9-0.85c0.23,0.01,0.45,0.05,0.67,0.14l0.27-0.97C-7405.87-2264.96-7406.19-2265.04-7406.51-2265.02
			 M-7415.23-2264.02c1.06,0.02,1.9,0.9,1.87,1.96c0,0.04,0,0.09-0.01,0.13l-3.91,0.06
			C-7417.11-2263.23-7416.29-2264.02-7415.23-2264.02 M-7415.22-2265.07c-1.98-0.01-3.59,1.59-3.59,3.57c0,0.1,0,0.2,0.01,0.3
			c-0.14,2,1.37,3.75,3.37,3.89c0.08,0.01,0.17,0.01,0.26,0.01c0.97,0,1.93-0.26,2.76-0.77l-0.31-0.85
			c-0.63,0.33-1.32,0.51-2.03,0.53c-1.39,0.03-2.54-1.07-2.57-2.45c0-0.07,0-0.14,0-0.22h5.28
			C-7411.92-2263.08-7412.85-2265.07-7415.22-2265.07 M-7427.17-2264.89l2.53,7.4h1.81l2.59-7.4h-1.43l-1.99,6.05l-1.94-6.05
			H-7427.17z M-7430.31-2266.43h1.5v-1.28h-1.5V-2266.43z M-7430.28-2257.49h1.44v-7.4h-1.44V-2257.49z M-7435.56-2265.08
			c-0.94,0.01-1.84,0.38-2.52,1.03l-0.18-0.85h-1.18l0.09,1.17v6.23h1.43v-5.78c0.53-0.38,1.17-0.59,1.82-0.61
			c0.89-0.09,1.68,0.55,1.78,1.44c0.01,0.11,0.01,0.23,0,0.34v4.61h1.44v-4.9c0.13-1.34-0.84-2.54-2.18-2.67
			C-7435.24-2265.08-7435.4-2265.08-7435.56-2265.08 M-7442.94-2257.36l1.15-0.17l-0.27-1.14v-6.22h-1.43v5.72
			c-0.52,0.41-1.15,0.64-1.8,0.67c-0.89,0.1-1.69-0.55-1.79-1.44c-0.01-0.11-0.01-0.22,0-0.33v-4.61h-1.44v4.93
			c-0.13,1.34,0.86,2.53,2.2,2.66c0.16,0.02,0.32,0.01,0.48,0c0.97-0.01,1.9-0.37,2.61-1.03L-7442.94-2257.36z M-7458.09-2268.25
			l-1.29,2.43l0.99,0.03l1.7-2.46H-7458.09z M-7457.18-2259.03c-0.49,0.47-1.14,0.73-1.82,0.71c-0.7,0.07-1.33-0.45-1.39-1.15
			c0-0.05-0.01-0.09-0.01-0.14c0-1.34,1.58-1.58,3.22-1.58V-2259.03z M-7458.5-2265.07c-0.96-0.01-1.91,0.2-2.78,0.62l0.32,0.96
			c0.68-0.36,1.44-0.55,2.21-0.55c1.03,0,1.56,0.53,1.56,1.3v0.71c-2.34,0-4.61,0.38-4.61,2.52c-0.01,1.21,0.96,2.2,2.18,2.21
			c0.07,0,0.15,0,0.22-0.01c0.93,0,1.82-0.35,2.49-0.99l0.26,0.93l1.17-0.17l-0.27-1.14v-4.26
			C-7455.76-2264.28-7456.96-2265.07-7458.5-2265.07 M-7469.59-2268.25v10.77h1.44v-2.59l1-1l2.33,3.59h1.66l-2.96-4.6l2.66-2.8
			h-1.6l-3.1,3.31v-6.68H-7469.59z M-7474.4-2265.07c-1.82,0-2.94,0.91-2.94,2.26c0,2.59,3.93,1.56,3.93,3.31
			c0,0.76-0.7,1.17-1.6,1.17c-0.74,0-1.48-0.17-2.14-0.52l-0.27,0.97c0.79,0.38,1.66,0.58,2.53,0.58c1.4,0.18,2.68-0.81,2.86-2.21
			c0.01-0.06,0.01-0.12,0.02-0.17c0-2.65-3.91-1.67-3.91-3.28c0-0.73,0.62-1.08,1.6-1.08c0.61-0.01,1.22,0.13,1.77,0.39l0.3-0.94
			C-7472.92-2264.89-7473.65-2265.06-7474.4-2265.07 M-7482.54-2264.02c1.06,0.02,1.9,0.9,1.87,1.96c0,0.04,0,0.09-0.01,0.13
			l-3.91,0.06C-7484.43-2263.23-7483.6-2264.02-7482.54-2264.02 M-7482.52-2265.07c-1.98-0.01-3.59,1.59-3.59,3.57
			c0,0.1,0,0.2,0.01,0.3c-0.14,2,1.37,3.75,3.37,3.89c0.08,0.01,0.17,0.01,0.25,0.01c0.97,0,1.93-0.27,2.76-0.77l-0.31-0.85
			c-0.63,0.33-1.32,0.51-2.03,0.53c-1.39,0.03-2.54-1.07-2.57-2.46c0-0.07,0-0.14,0-0.21h5.28
			C-7479.23-2263.08-7480.15-2265.07-7482.52-2265.07 M-7492.32-2268.24l1.55,2.43h1.28l1.55-2.43h-1l-1.18,1.79l-1.18-1.79
			H-7492.32z M-7490-2265.07c-2.15,0.09-3.82,1.91-3.73,4.06c0.08,1.92,1.56,3.5,3.47,3.71c0.88,0,1.74-0.23,2.49-0.68l-0.24-0.86
			c-0.54,0.29-1.14,0.45-1.76,0.47c-1.4-0.03-2.51-1.18-2.48-2.58c0-0.09,0.01-0.18,0.02-0.27c-0.17-1.35,0.79-2.58,2.13-2.74
			c0.11-0.01,0.22-0.02,0.32-0.02c0.6,0,1.19,0.16,1.7,0.47l0.33-0.97C-7488.43-2264.88-7489.21-2265.08-7490-2265.07
			 M-7499.6-2265.07c-1.97-0.08-3.64,1.46-3.71,3.43c-0.01,0.2,0,0.4,0.03,0.6c-0.16,1.89,1.24,3.56,3.13,3.72
			c0.12,0.01,0.24,0.01,0.36,0.01c2,0.09,3.68-1.46,3.77-3.46c0.01-0.19,0-0.39-0.02-0.58c0.14-1.92-1.31-3.59-3.23-3.73
			C-7499.39-2265.07-7499.5-2265.07-7499.6-2265.07 M-7499.65-2264.02c1.32,0,2.17,0.89,2.17,2.78c0,1.79-0.77,2.85-2.17,2.85
			c-1.29,0-2.18-0.86-2.18-2.85C-7501.83-2262.96-7501.06-2264.02-7499.65-2264.02 M-7508.36-2265.07c-0.86,0.01-1.7,0.33-2.35,0.9
			v-4.08h-1.44v10.77h1.44v-5.78c0.53-0.38,1.16-0.59,1.8-0.61c0.89-0.1,1.69,0.55,1.79,1.44c0.01,0.11,0.01,0.22,0,0.33v4.61h1.43
			v-4.91c0.14-1.34-0.83-2.53-2.17-2.67C-7508.03-2265.09-7508.19-2265.09-7508.36-2265.07 M-7516.23-2266.43h1.5v-1.28h-1.5
			V-2266.43z M-7516.2-2257.49h1.44v-7.4h-1.44V-2257.49z M-7520.54-2267.9v9.89c0.05,0.66-0.15,1.32-0.56,1.85l-1.17,1.52
			l0.99,0.76l1.31-1.49c0.66-0.69,1-1.62,0.94-2.58v-9.95H-7520.54z"/>
	</g>
	<g id="Group_582_2_" transform="translate(7623 2278)">
		<g id="Group_33_2_" transform="translate(-6429 -718)">
			<path id="Path_57-2_2_" class="st0" d="M-1120.2-1524.46c0.99-0.32,2.05,0.22,2.37,1.21c0.32,0.99-0.22,2.05-1.21,2.37
				c-0.99,0.32-2.05-0.22-2.37-1.21C-1121.74-1523.07-1121.19-1524.13-1120.2-1524.46
				C-1120.2-1524.46-1120.2-1524.46-1120.2-1524.46 M-1147.17-1551.61c1.04,0,1.89,0.84,1.89,1.88s-0.84,1.89-1.88,1.89
				s-1.89-0.84-1.89-1.88c0,0,0,0,0,0C-1149.05-1550.76-1148.21-1551.6-1147.17-1551.61 M-1147.22-1559.78
				c-0.82-0.48-1.67-0.13-1.67,0.7c-0.06,1.72-1.5,3.08-3.22,3.02c-1.65-0.05-2.97-1.38-3.02-3.02c0-0.83-0.85-1.18-1.67-0.7
				c-5,3.4-7.92,9.12-7.72,15.17c0,8.81,6.25,18.89,12.51,23.75c6.25-4.85,12.51-14.94,12.51-23.75
				C-1139.3-1550.66-1142.22-1556.38-1147.22-1559.78 M-1149.89-1514.31c-2.21,7.6-1.34,19.44,3.83,26.56
				c3.39,5.01,9.12,7.94,15.17,7.74c0.94-0.09,1.43-0.87,0.94-1.54c-0.99-1.41-0.64-3.36,0.78-4.35c1.37-0.96,3.26-0.66,4.27,0.67
				c0.49,0.67,1.38,0.45,1.76-0.42c2.05-5.69,1.04-12.04-2.68-16.82C-1131-1509.59-1141.98-1514.07-1149.89-1514.31
				 M-1137.95-1489.64c0.84-0.61,2.02-0.43,2.63,0.41c0.61,0.84,0.43,2.02-0.41,2.63c-0.84,0.61-2.02,0.43-2.63-0.41
				C-1138.98-1487.85-1138.8-1489.03-1137.95-1489.64C-1137.96-1489.64-1137.95-1489.64-1137.95-1489.64 M-1174.18-1537.6
				c-5.69-2.06-12.04-1.06-16.82,2.65c-0.71,0.63-0.64,1.55,0.15,1.8c1.62,0.58,2.46,2.37,1.88,3.99c-0.56,1.55-2.23,2.4-3.81,1.94
				c-0.79-0.25-1.38,0.45-1.18,1.37c1.69,5.81,6.23,10.36,12.05,12.04c8.38,2.71,19.9-0.11,26.45-4.56
				C-1158.14-1525.81-1165.8-1534.88-1174.18-1537.6 M-1180.83-1533.68c0.99,0.32,1.53,1.38,1.21,2.37
				c-0.32,0.99-1.38,1.53-2.37,1.21c-0.99-0.32-1.53-1.38-1.21-2.37c0,0,0,0,0,0C-1182.88-1533.46-1181.82-1534-1180.83-1533.68
				 M-1154.15-1514.32c-7.91,0.25-18.9,4.73-24.08,11.85c-3.72,4.78-4.73,11.12-2.68,16.82c0.38,0.87,1.28,1.09,1.76,0.42
				c1.03-1.38,2.99-1.66,4.37-0.63c1.35,1.01,1.66,2.92,0.68,4.3c-0.48,0.67,0,1.45,0.94,1.54c6.05,0.19,11.78-2.73,15.17-7.74
				C-1152.8-1494.88-1151.94-1506.71-1154.15-1514.32 M-1173.93-1495.33c0.84,0.61,1.02,1.79,0.41,2.63
				c-0.61,0.84-1.79,1.02-2.63,0.41c-0.84-0.61-1.02-1.79-0.41-2.63c0.61-0.84,1.78-1.03,2.62-0.42
				C-1173.93-1495.34-1173.93-1495.33-1173.93-1495.33 M-1129.87-1537.59c-8.38,2.72-16.03,11.79-18.72,19.24
				c6.55,4.45,18.07,7.28,26.45,4.56c5.82-1.68,10.36-6.23,12.05-12.04c0.21-0.92-0.38-1.63-1.18-1.37
				c-1.66,0.48-3.39-0.47-3.87-2.13c-0.46-1.58,0.39-3.25,1.94-3.81c0.79-0.25,0.85-1.17,0.15-1.8
				C-1117.82-1538.65-1124.17-1539.65-1129.87-1537.59"/>
			<path id="Path_61-2_2_" class="st0" d="M-997.72-1494.35c-1.99,0.08-3.54,1.76-3.47,3.75c0,0.09,0.01,0.17,0.02,0.26
				c-0.22,1.85,1.1,3.52,2.95,3.74c0.07,0.01,0.15,0.02,0.22,0.02c0.93-0.01,1.81-0.37,2.47-1.02l0.27,0.96l1.15-0.17l-0.26-1.14
				v-9.58h-1.44v3.83c-0.55-0.43-1.22-0.65-1.92-0.65 M-997.29-1493.28c0.55,0,1.08,0.19,1.5,0.55v4.35
				c-0.45,0.39-1.01,0.62-1.61,0.65c-1.49,0-2.25-1.08-2.25-2.76C-999.64-1492.22-998.7-1493.28-997.29-1493.28 M-1007.03-1494.35
				c-1.97-0.08-3.64,1.46-3.71,3.43c-0.01,0.2,0,0.4,0.03,0.6c-0.16,1.89,1.24,3.56,3.13,3.72c0.12,0.01,0.24,0.01,0.36,0.01
				c2,0.08,3.68-1.46,3.77-3.46c0.01-0.19,0-0.38-0.02-0.57c0.14-1.92-1.31-3.59-3.23-3.72
				C-1006.81-1494.35-1006.92-1494.36-1007.03-1494.35 M-1007.07-1493.31c1.32,0,2.17,0.89,2.17,2.78c0,1.79-0.77,2.85-2.17,2.85
				c-1.29,0-2.19-0.86-2.19-2.85C-1009.26-1492.25-1008.48-1493.31-1007.07-1493.31 M-1019.09-1494.17l2.54,7.4h1.8l2.6-7.4h-1.43
				l-1.99,6.05l-1.94-6.05H-1019.09z M-1031.38-1494.17l2.58,7.4h0.33l-1.32,3.41h1.56l3.82-10.82h-1.43l-2.03,6.04l-1.97-6.04
				H-1031.38z M-1035.55-1494.35c-0.94,0.01-1.84,0.38-2.52,1.03l-0.18-0.85h-1.18l0.09,1.17v6.23h1.42v-5.78
				c0.53-0.38,1.17-0.59,1.82-0.61c0.89-0.09,1.68,0.55,1.77,1.43c0.01,0.11,0.01,0.23,0,0.34v4.61h1.44v-4.92
				c0.13-1.34-0.84-2.54-2.18-2.67C-1035.23-1494.38-1035.39-1494.38-1035.55-1494.35 M-1043.44-1488.32
				c-0.49,0.47-1.14,0.72-1.82,0.71c-0.7,0.07-1.33-0.45-1.39-1.15c0-0.04-0.01-0.09-0.01-0.13c0-1.34,1.58-1.58,3.22-1.58V-1488.32
				z M-1044.76-1494.36c-0.96-0.01-1.91,0.2-2.77,0.62l0.32,0.96c0.68-0.36,1.44-0.55,2.22-0.55c1.03,0,1.56,0.53,1.56,1.3v0.71
				c-2.34,0-4.61,0.38-4.61,2.52c-0.01,1.21,0.97,2.2,2.18,2.21c0.07,0,0.14,0,0.22-0.01c0.93,0,1.82-0.35,2.49-0.99l0.26,0.93
				l1.17-0.17l-0.27-1.14v-4.25c0-1.35-1.2-2.14-2.75-2.14 M-1049.61-1494.3c-0.84,0.01-1.62,0.41-2.11,1.09l-0.23-0.96h-1.18
				l0.16,1.28v6.13h1.43v-5.61c0.5-0.51,1.18-0.81,1.9-0.85c0.23,0.01,0.45,0.05,0.67,0.14l0.27-0.97
				C-1048.98-1494.24-1049.3-1494.32-1049.61-1494.3 M-1058.3-1494.35c-0.86,0.01-1.7,0.33-2.35,0.9v-4.08h-1.44v10.77h1.44v-5.78
				c0.53-0.38,1.16-0.59,1.81-0.61c0.89-0.1,1.69,0.55,1.79,1.44c0.01,0.11,0.01,0.22,0,0.33v4.61h1.42v-4.92
				c0.14-1.34-0.83-2.53-2.17-2.67C-1057.96-1494.37-1058.13-1494.37-1058.3-1494.35 M-1066.22-1494.35
				c-2.15,0.09-3.82,1.9-3.74,4.05c0.08,1.93,1.56,3.51,3.48,3.72c0.88,0,1.74-0.23,2.49-0.68l-0.24-0.86
				c-0.54,0.29-1.14,0.45-1.76,0.47c-1.4-0.03-2.51-1.18-2.48-2.58c0-0.09,0.01-0.18,0.02-0.27c-0.17-1.35,0.79-2.58,2.13-2.74
				c0.11-0.01,0.22-0.02,0.32-0.02c0.6,0,1.19,0.17,1.7,0.48l0.33-0.97C-1064.64-1494.16-1065.42-1494.35-1066.22-1494.35
				 M-1075.82-1494.34c-1.97-0.08-3.63,1.46-3.71,3.43c-0.01,0.2,0,0.41,0.03,0.61c-0.16,1.89,1.24,3.56,3.13,3.72
				c0.12,0.01,0.24,0.01,0.36,0.01c2,0.08,3.68-1.47,3.77-3.46c0.01-0.19,0-0.38-0.02-0.57c0.14-1.92-1.3-3.58-3.22-3.72
				C-1075.6-1494.34-1075.71-1494.34-1075.82-1494.34 M-1075.86-1493.29c1.32,0,2.17,0.89,2.17,2.78c0,1.79-0.77,2.85-2.17,2.85
				c-1.29,0-2.18-0.86-2.18-2.85C-1078.05-1492.23-1077.27-1493.29-1075.86-1493.29 M-1087.44-1488.3
				c-0.49,0.47-1.14,0.73-1.82,0.71c-0.7,0.07-1.33-0.45-1.39-1.15c0-0.05-0.01-0.09-0.01-0.14c0-1.34,1.58-1.58,3.22-1.58V-1488.3z
				 M-1088.76-1494.34c-0.96-0.01-1.91,0.2-2.78,0.62l0.32,0.96c0.68-0.36,1.44-0.55,2.21-0.55c1.03,0,1.57,0.53,1.57,1.3v0.71
				c-2.34,0-4.61,0.38-4.61,2.52c-0.01,1.21,0.96,2.2,2.18,2.21c0.07,0,0.15,0,0.22-0.01c0.93,0,1.82-0.35,2.49-0.99l0.26,0.93
				l1.17-0.17l-0.27-1.14v-4.27C-1086.01-1493.56-1087.21-1494.35-1088.76-1494.34"/>
			<path id="Path_62-2_2_" class="st0" d="M-976.57-1504.34h1.44v-7.4h-1.44V-1504.34z M-975.37-1515.11l-1.29,2.43l0.99,0.03
				l1.7-2.46H-975.37z M-985.17-1511.74l2.53,7.4h1.8l2.6-7.4h-1.43l-1.99,6.05l-1.94-6.05H-985.17z M-989.6-1514.35l-0.48,2.61
				l-1.38,0.16v0.82h1.38v4.52c-0.05,1.11,0.81,2.04,1.92,2.08c0.09,0,0.19,0,0.28-0.01c0.72-0.02,1.42-0.22,2.03-0.59l-0.27-0.82
				c-0.38,0.2-0.8,0.31-1.23,0.32c-0.64,0.08-1.23-0.38-1.31-1.03c-0.01-0.1-0.01-0.21,0-0.31v-4.17h2.5v-0.99h-2.5v-2.61
				L-989.6-1514.35z M-995.32-1511.92c-1.82,0-2.94,0.91-2.94,2.26c0,2.6,3.93,1.56,3.93,3.31c0,0.76-0.7,1.17-1.6,1.17
				c-0.74,0-1.48-0.17-2.14-0.52l-0.27,0.97c0.79,0.38,1.66,0.58,2.53,0.58c1.4,0.17,2.68-0.82,2.85-2.22
				c0.01-0.05,0.01-0.11,0.02-0.16c0-2.65-3.91-1.67-3.91-3.28c0-0.73,0.62-1.08,1.6-1.08c0.61-0.01,1.22,0.13,1.77,0.39l0.31-0.94
				C-993.85-1511.74-994.58-1511.91-995.32-1511.92 M-1003.86-1515.09l1.55,2.43h1.28l1.55-2.43h-1l-1.18,1.79l-1.18-1.79H-1003.86z
				 M-1000.31-1511.87c-0.84,0.01-1.62,0.41-2.11,1.09l-0.23-0.96h-1.18l0.16,1.28v6.13h1.43v-5.61c0.5-0.51,1.18-0.81,1.9-0.85
				c0.23,0.01,0.45,0.05,0.67,0.14l0.27-0.97C-999.68-1511.81-1000-1511.89-1000.31-1511.87 M-1008.69-1515.1l-1.29,2.43l0.99,0.03
				l1.7-2.46H-1008.69z M-1007.78-1505.88c-0.49,0.47-1.14,0.73-1.82,0.71c-0.7,0.07-1.33-0.45-1.39-1.15
				c0-0.05-0.01-0.09-0.01-0.14c0-1.34,1.58-1.58,3.22-1.58V-1505.88z M-1009.1-1511.92c-0.96-0.01-1.91,0.2-2.78,0.62l0.32,0.96
				c0.68-0.36,1.44-0.55,2.21-0.55c1.03,0,1.56,0.53,1.56,1.3v0.71c-2.34,0-4.61,0.38-4.61,2.52c-0.01,1.21,0.96,2.2,2.18,2.21
				c0.07,0,0.15,0,0.22-0.01c0.92,0,1.82-0.35,2.49-0.99l0.26,0.93l1.17-0.17l-0.27-1.14v-4.27
				C-1006.36-1511.13-1007.56-1511.92-1009.1-1511.92 M-1018.27-1510.81c1.49,0,2.29,1.11,2.29,2.69c0,1.77-0.96,2.88-2.37,2.88
				c-0.57-0.02-1.11-0.24-1.53-0.62v-4.35C-1019.42-1510.58-1018.86-1510.78-1018.27-1510.81 M-1021.31-1515.1v9.58l-0.27,1.14
				l1.17,0.17l0.26-0.94c0.57,0.62,1.37,0.99,2.22,1c2.01-0.09,3.56-1.78,3.48-3.79c0-0.08-0.01-0.17-0.02-0.25
				c0.22-1.83-1.08-3.49-2.91-3.71c-0.09-0.01-0.19-0.02-0.28-0.02c-0.81-0.01-1.59,0.27-2.21,0.79v-3.97L-1021.31-1515.1z
				 M-1030.07-1511.73l2.58,7.4h0.35l-1.32,3.41h1.56l3.82-10.82h-1.43l-2.03,6.04l-1.97-6.04H-1030.07z M-1031.61-1511.87
				c-0.84,0.01-1.62,0.41-2.11,1.09l-0.23-0.96h-1.18l0.16,1.28v6.13h1.43v-5.61c0.5-0.51,1.18-0.81,1.9-0.85
				c0.23,0.01,0.45,0.05,0.67,0.14l0.27-0.97C-1030.97-1511.8-1031.29-1511.89-1031.61-1511.87 M-1043.66-1505.88
				c-0.49,0.47-1.14,0.72-1.82,0.71c-0.7,0.07-1.33-0.45-1.39-1.15c0-0.04-0.01-0.09-0.01-0.14c0-1.34,1.58-1.58,3.22-1.58V-1505.88
				z M-1044.98-1511.92c-0.96-0.01-1.91,0.2-2.78,0.62l0.32,0.96c0.68-0.36,1.44-0.55,2.21-0.55c1.03,0,1.57,0.53,1.57,1.3v0.71
				c-2.34,0-4.61,0.38-4.61,2.52c-0.01,1.21,0.96,2.2,2.18,2.21c0.07,0,0.15,0,0.22-0.01c0.92,0,1.82-0.35,2.49-0.99l0.26,0.93
				l1.17-0.17l-0.27-1.14v-4.27C-1042.23-1511.13-1043.43-1511.92-1044.98-1511.92 M-1053.17-1514.34l-0.48,2.61l-1.38,0.16v0.82
				h1.38v4.52c-0.05,1.11,0.81,2.04,1.92,2.08c0.09,0,0.19,0,0.28-0.01c0.72-0.02,1.42-0.22,2.03-0.59l-0.27-0.82
				c-0.38,0.2-0.8,0.31-1.23,0.32c-0.64,0.08-1.23-0.38-1.31-1.03c-0.01-0.1-0.01-0.21,0-0.31v-4.17h2.52v-0.99h-2.5v-2.61
				L-1053.17-1514.34z M-1058.28-1504.33h1.44v-10.77h-1.44V-1504.33z M-1061.85-1504.21l1.15-0.17l-0.27-1.14v-6.22h-1.43v5.72
				c-0.52,0.41-1.15,0.64-1.8,0.67c-0.89,0.1-1.69-0.55-1.79-1.44c-0.01-0.11-0.01-0.22,0-0.33v-4.61h-1.44v4.93
				c-0.13,1.34,0.86,2.53,2.2,2.66c0.16,0.02,0.32,0.01,0.48,0c0.97-0.01,1.9-0.37,2.61-1.03L-1061.85-1504.21z M-1075.73-1515.1
				v10.77h1.44v-2.59l1-1l2.33,3.59h1.65l-2.96-4.6l2.65-2.81h-1.6l-3.09,3.31v-6.68L-1075.73-1515.1z M-1079.81-1505.88
				c-0.49,0.47-1.14,0.72-1.82,0.71c-0.7,0.07-1.33-0.45-1.39-1.15c0-0.05-0.01-0.09-0.01-0.14c0-1.34,1.58-1.58,3.22-1.58V-1505.88
				z M-1081.13-1511.92c-0.96-0.01-1.91,0.2-2.78,0.62l0.32,0.96c0.68-0.36,1.44-0.55,2.22-0.55c1.03,0,1.56,0.53,1.56,1.3v0.71
				c-2.34,0-4.61,0.38-4.61,2.52c-0.01,1.21,0.97,2.2,2.18,2.21c0.07,0,0.14,0,0.22-0.01c0.93,0,1.82-0.35,2.49-0.99l0.26,0.93
				l1.17-0.17l-0.28-1.14v-4.27C-1078.39-1511.13-1079.58-1511.92-1081.13-1511.92 M-1091.54-1514.74v10.41h1.5v-4.58h4.47v-1.15
				h-4.47v-3.41h4.55v-1.26L-1091.54-1514.74z"/>
		</g>
	</g>
</g>
</svg>
